<svg xmlns="http://www.w3.org/2000/svg" width="39.672" height="40.745" viewBox="0 0 39.672 40.745">
  <g id="Group_235" data-name="Group 235" transform="translate(0.03 0.001)">
    <path id="Path_335" data-name="Path 335" d="M-.027,257.013c.037-.1.077-.2.112-.3a2.332,2.332,0,0,1,2.147-1.776,20.251,20.251,0,0,0,4.648-1.007,11.394,11.394,0,0,1,9.5,1.447c1.042.663,2.048,1.387,3.034,2.131a7.548,7.548,0,0,0,3.8,1.453c1.781.2,3.563.375,5.345.561.061.007.134-.01.183.017.739.4,1.225-.031,1.72-.5,1.279-1.212,2.551-2.432,3.866-3.6A3.084,3.084,0,0,1,39,259.454c-2.195,2.734-4.235,5.594-6.333,8.406-.249.334-.436.714-.685,1.046a4.723,4.723,0,0,1-2.6,1.745H16.856a13.219,13.219,0,0,1-1.307-.556c-1.525-.842-3.015-1.749-4.559-2.552a6.305,6.305,0,0,0-2.252-.765c-2.039-.179-4.093-.224-6.141-.286a2.568,2.568,0,0,1-2.5-1.777,2.907,2.907,0,0,0-.129-.279Q-.026,260.724-.027,257.013Zm23.138,11.308c1.793,0,3.587-.024,5.38.011a1.932,1.932,0,0,0,1.7-.931c.279-.389.509-.814.8-1.2q3.067-4.1,6.155-8.19a.629.629,0,0,0,.025-.9.665.665,0,0,0-.947-.17,5.649,5.649,0,0,0-.721.577c-1.307,1.2-2.6,2.424-3.916,3.616-.272.246-.408.447-.272.822a1.915,1.915,0,0,1,.057.735,3.007,3.007,0,0,1-2.87,2.865c-2.515.139-5.039.173-7.544.416a6.434,6.434,0,0,1-4.413-1.148c-1.344-.909-2.7-1.795-4.046-2.7a1.167,1.167,0,0,1-.364-1.559,1.127,1.127,0,0,1,1.567-.428c.526.292,1.031.621,1.535.951,1.136.745,2.251,1.525,3.409,2.236a2.277,2.277,0,0,0,1.216.338c2.794-.118,5.586-.285,8.379-.439.532-.029.819-.277.813-.695s-.305-.646-.821-.694c-1.63-.149-3.266-.269-4.888-.483a10.072,10.072,0,0,1-4.9-1.682c-.792-.591-1.631-1.121-2.418-1.719a9.721,9.721,0,0,0-9.37-1.543,26.6,26.6,0,0,1-3.8.786c-.418.068-.583.141-.577.594q.035,2.875,0,5.752c-.006.459.117.605.594.616,1.823.038,3.644.113,5.465.2a7.112,7.112,0,0,1,3.158.822c1.729.959,3.454,1.925,5.193,2.864a2.151,2.151,0,0,0,.95.267C19.463,268.334,21.288,268.321,23.111,268.321Z" transform="translate(0 -229.907)" fill="#fff"/>
    <path id="Path_336" data-name="Path 336" d="M114.277,4c.666-.641,1.349-1.334,2.07-1.986C121.032-2.232,127.6.786,128.977,5.95a8.084,8.084,0,0,1-.812,6.217,31.027,31.027,0,0,1-7.3,8.447c-1.8,1.533-3.7,2.937-5.578,4.376-.835.642-1.2.623-2.042.026a57.269,57.269,0,0,1-9.755-8.455,24.673,24.673,0,0,1-3.26-4.607A8.11,8.11,0,0,1,106.125.085a7.224,7.224,0,0,1,6.057,1.93C112.912,2.652,113.594,3.348,114.277,4Zm12.661,4.084A5.452,5.452,0,0,0,126.052,5c-1.405-2.273-5-3.915-7.851-1.475a29.558,29.558,0,0,0-2.419,2.421c-1.262,1.364-1.826,1.346-3.062-.021a31.592,31.592,0,0,0-2.681-2.612,4.035,4.035,0,0,0-2.318-.974,5.72,5.72,0,0,0-5.734,7.782,16.252,16.252,0,0,0,2.155,3.549,48.2,48.2,0,0,0,9.848,9.017c.251.185.4.1.6-.045a59.282,59.282,0,0,0,7.593-6.438,24.036,24.036,0,0,0,3.961-5.173A5.582,5.582,0,0,0,126.938,8.082Z" transform="translate(-90.045 0)" fill="#fff"/>
  </g>
</svg>
