<svg xmlns="http://www.w3.org/2000/svg" width="43.837" height="43.008" viewBox="0 0 43.837 43.008">
  <g id="Group_231" data-name="Group 231" transform="translate(-1829.667 -639.523)">
    <g id="Group_25_1_" transform="translate(3657.337 1287.034)">
      <path id="Path_12_2_" d="M-1820.08-643.97v4.57a3.113,3.113,0,0,0,2.92,3.3,2.408,2.408,0,0,0,.38,0,5.368,5.368,0,0,0,1.27-.12,3.068,3.068,0,0,0,2.3-2.95c.01-1.48,0-2.96,0-4.44v-.35h15.24c.01.11.02.21.02.32,0,1.44-.01,2.89,0,4.33a3.068,3.068,0,0,0,2.64,3.12,4.7,4.7,0,0,0,2.77-.3,2.4,2.4,0,0,0,1.47-2.28c.02-1.62,0-3.23,0-4.85v-.36h4.32a2.8,2.8,0,0,1,2.91,2.71v33.78a2.8,2.8,0,0,1-2.62,2.98,2.161,2.161,0,0,1-.36,0h-37.83a2.885,2.885,0,0,1-2.39-1.05,2.808,2.808,0,0,1-.63-1.83v-33.72a2.792,2.792,0,0,1,2.18-2.79,3.089,3.089,0,0,1,.6-.08c1.53-.01,3.07,0,4.6,0C-1820.24-643.98-1820.18-643.97-1820.08-643.97Zm33.44,36.65v-25.2c0-.36,0-.37-.38-.37h-37.47c-.38,0-.38,0-.38.36v24.85c0,.35,0,.35.36.35h37.87Z" fill="#fff"/>
      <path id="Path_13_2_" d="M-1796.55-642.52v-3.17a1.722,1.722,0,0,1,1.62-1.82h.7a1.71,1.71,0,0,1,1.76,1.66v.14c.01,1.79,0,3.58,0,5.36,0,.36.01.73,0,1.1a1.729,1.729,0,0,1-1.69,1.73c-.23.01-.46.01-.68,0a1.716,1.716,0,0,1-1.69-1.73C-1796.55-640.35-1796.55-641.44-1796.55-642.52Z" fill="#fff"/>
      <path id="Path_14_2_" d="M-1814.6-642.48v3.12a1.735,1.735,0,0,1-1.58,1.87,1.308,1.308,0,0,1-.28,0c-.19,0-.38,0-.57-.01a1.7,1.7,0,0,1-1.64-1.72q-.015-3.27,0-6.54a1.7,1.7,0,0,1,1.57-1.7,5.156,5.156,0,0,1,.88-.01,1.689,1.689,0,0,1,1.62,1.73c0,1.09-.01,2.18,0,3.26Z" fill="#fff"/>
      <path id="Path_15_2_" d="M-1818.23-615.12h2.41c.36,0,.48.12.48.47v4.14c0,.34-.12.47-.46.47h-4.85c-.33,0-.45-.12-.45-.45v-4.19c0-.32.12-.44.46-.44Z" fill="#fff"/>
      <path id="Path_16_2_" d="M-1810.01-615.12h2.41c.36,0,.48.12.48.48v4.14c0,.34-.12.47-.46.47h-4.85c-.33,0-.45-.13-.45-.45v-4.16c0-.34.12-.46.46-.46C-1811.62-615.12-1810.81-615.12-1810.01-615.12Z" fill="#fff"/>
      <path id="Path_17_2_" d="M-1801.79-615.12h2.41c.36,0,.48.12.48.47v4.14c0,.34-.12.47-.46.47h-4.85c-.33,0-.45-.13-.45-.45v-4.19c0-.32.13-.44.46-.44Z" fill="#fff"/>
      <path id="Path_18_2_" d="M-1793.56-615.12h2.38c.39,0,.5.11.5.51v4.08c0,.37-.12.49-.49.49h-4.76c-.39,0-.5-.11-.5-.51v-4.08c0-.37.11-.49.49-.49Z" fill="#fff"/>
      <path id="Path_19_2_" d="M-1818.22-622.25h2.38c.38,0,.49.11.49.49v4.11c0,.36-.12.48-.48.48h-4.82c-.35,0-.46-.11-.46-.46v-4.16c0-.33.12-.45.44-.45C-1819.84-622.26-1819.03-622.25-1818.22-622.25Z" fill="#fff"/>
      <path id="Path_20_2_" d="M-1810-617.18h-2.35c-.42,0-.52-.1-.52-.51v-4.05c0-.41.1-.51.52-.51h4.71c.43,0,.53.1.53.54v4c0,.45-.09.54-.55.54Z" fill="#fff"/>
      <path id="Path_21_2_" d="M-1801.78-622.26h2.38c.38,0,.49.11.49.49v4.11c0,.36-.11.48-.48.48h-4.82c-.35,0-.46-.11-.46-.46v-4.14c0-.36.11-.48.47-.48C-1803.38-622.26-1802.58-622.25-1801.78-622.26Z" fill="#fff"/>
      <path id="Path_22_2_" d="M-1801.77-624.31h-2.41c-.36,0-.48-.11-.48-.48v-4.13c0-.34.11-.46.46-.46h4.82c.36,0,.48.12.48.48v4.13c0,.34-.12.46-.46.46Z" fill="#fff"/>
      <path id="Path_23_2_" d="M-1793.56-617.18h-2.38c-.4,0-.5-.11-.5-.51v-4.05c0-.41.1-.51.52-.52h4.71c.43,0,.53.1.53.54v4.03c0,.41-.1.51-.52.51Z" fill="#fff"/>
      <path id="Path_24_2_" d="M-1793.57-624.31h-2.38c-.38,0-.48-.11-.49-.49v-4.08c0-.4.1-.5.51-.5h4.74c.41,0,.51.11.51.52v4.05c0,.39-.11.5-.51.5Z" fill="#fff"/>
    </g>
  </g>
</svg>
