<svg xmlns="http://www.w3.org/2000/svg" width="34.149" height="34.15" viewBox="0 0 34.149 34.15">
  <path id="Path_7" data-name="Path 7" d="M133.268,94.563V95.4c-.028.235-.046.472-.085.7a3.662,3.662,0,0,1-.854,1.822,3.956,3.956,0,0,1,.416,2.485,5.123,5.123,0,0,1-1.347,2.921.254.254,0,0,0-.033.193c.061.346.163.689.193,1.038a5.3,5.3,0,0,1-.364,2.128,4.5,4.5,0,0,1-1.55,2.32.211.211,0,0,0-.058.174,4.245,4.245,0,0,1-1.224,3.839,3.816,3.816,0,0,1-2.86,1.115c-2.026.021-4.053.008-6.08.009a25.931,25.931,0,0,1-5.087-.491c-1.654-.33-3.294-.728-4.94-1.1-.343-.077-.683-.165-1.023-.247l-.059.105a3.121,3.121,0,0,1-2.871,1.728c-1.034,0-2.067.007-3.1,0a3.189,3.189,0,0,1-3.219-3.234q0-8.5,0-17a3.2,3.2,0,0,1,3.251-3.239c.976,0,1.951.013,2.926,0a3.4,3.4,0,0,1,2.2.733.186.186,0,0,0,.232.017c.315-.161.635-.313.948-.476a7.424,7.424,0,0,0,3.3-3.351,10.194,10.194,0,0,0,1.01-4.423,3.228,3.228,0,0,1,2.468-3.08c.128-.031.257-.058.386-.087h.627a.3.3,0,0,0,.064.025,3.7,3.7,0,0,1,1.807.76,7.83,7.83,0,0,1,3.033,5.386,14.78,14.78,0,0,1-.055,3.734c-.031.263-.081.522-.124.793.072,0,.129.011.186.012,1.991.054,3.982.091,5.971.169a16.2,16.2,0,0,1,2.612.251,3.917,3.917,0,0,1,3.209,2.993C133.218,94.267,133.239,94.416,133.268,94.563ZM118.331,92.8c.045-.141.082-.244.112-.349.238-.835.517-1.662.7-2.508a12.14,12.14,0,0,0,.158-3,6.109,6.109,0,0,0-1.1-3.289,4.058,4.058,0,0,0-1.375-1.333,1.213,1.213,0,0,0-.766-.181,1.068,1.068,0,0,0-.935,1.066c-.018.3-.022.592-.044.887a11.73,11.73,0,0,1-1.149,4.363,9.722,9.722,0,0,1-5.388,4.883,1.192,1.192,0,0,0-.888,1.256q0,7.22,0,14.44a1.023,1.023,0,0,0,.873,1.1c1.391.337,2.785.666,4.176,1a30.185,30.185,0,0,0,7.361.874c1.69-.015,3.38,0,5.069,0a6.012,6.012,0,0,0,.608-.028,1.72,1.72,0,0,0,1.576-1.174c.053-.147.112-.293.16-.441a1.119,1.119,0,0,0-1.11-1.555c-.528,0-1.057,0-1.585,0a.538.538,0,1,1,.007-1.07c.546,0,1.092.008,1.637,0a7.742,7.742,0,0,0,.987-.075,1.783,1.783,0,0,0,1.34-.754,4.083,4.083,0,0,0,.672-2.3,1.026,1.026,0,0,0-.748-1.006,2.3,2.3,0,0,0-.665-.113c-.708-.015-1.416-.006-2.125-.012a.84.84,0,0,1-.3-.052.513.513,0,0,1-.306-.582.525.525,0,0,1,.535-.432c.877,0,1.754.006,2.631-.006a1.919,1.919,0,0,0,1.615-.782,3.047,3.047,0,0,0,.586-2.015,1.468,1.468,0,0,0-1.156-1.4,2.879,2.879,0,0,0-.621-.063c-.633-.008-1.266,0-1.9-.005a.907.907,0,0,1-.306-.046.524.524,0,0,1-.325-.575.534.534,0,0,1,.527-.444c.7,0,1.394,0,2.091-.005a4.829,4.829,0,0,0,.813-.073,1.457,1.457,0,0,0,1.316-1.287,5.012,5.012,0,0,0,.026-1.058,1.534,1.534,0,0,0-1.107-1.4,3.586,3.586,0,0,0-.893-.216c-.977-.078-1.956-.156-2.936-.173-2.374-.039-4.749-.044-7.124-.061C118.822,92.8,118.591,92.8,118.331,92.8Zm-11.741,9.6q0-4.223,0-8.446a1.061,1.061,0,0,0-1.151-1.148c-1.022,0-2.043,0-3.065,0a1.059,1.059,0,0,0-1.117,1.115q0,8.48,0,16.961a1.07,1.07,0,0,0,1.128,1.126q1.542,0,3.083,0a1.337,1.337,0,0,0,.36-.048,1.06,1.06,0,0,0,.763-1.113Q106.591,106.623,106.59,102.4Z" transform="translate(-99.119 -80)" fill="#fff"/>
</svg>
