<svg xmlns="http://www.w3.org/2000/svg" width="43.905" height="43.892" viewBox="0 0 43.905 43.892">
  <g id="Group_230" data-name="Group 230" transform="translate(0.005)">
    <path id="Path_29_2_" d="M9.08,0H40.3c.08.03.15.06.23.09a4.055,4.055,0,0,1,3.23,3.03c.05.16.09.32.14.48V39.02a1.539,1.539,0,0,0-.08.19,5.448,5.448,0,0,1-5.53,4.68H5.58A5.463,5.463,0,0,1,0,38.54V11.17a4.108,4.108,0,0,1,3.92-4.3,2.669,2.669,0,0,1,.4,0H5.49c0-.97-.01-1.88,0-2.79A4.106,4.106,0,0,1,8.31.22C8.57.14,8.83.07,9.08,0ZM5.49,9.6H4.38c-1.15,0-1.65.5-1.65,1.64V38.22a2.756,2.756,0,0,0,2.52,2.97,3.231,3.231,0,0,0,.44,0H38.2a2.772,2.772,0,0,0,2.98-2.52,3.231,3.231,0,0,0,0-.44V4.38c0-1.14-.5-1.65-1.64-1.65H9.9c-1.2,0-1.68.49-1.68,1.69V36.67a3.648,3.648,0,0,1-.01.47,1.363,1.363,0,0,1-2.72-.04c-.01-.14,0-.29,0-.43V9.6Z" fill="#fff"/>
    <path id="Path_30_2_" d="M23.31,11.68v4.63a1.381,1.381,0,0,1-1.22,1.52,1.405,1.405,0,0,1-.29,0H12.5a1.373,1.373,0,0,1-1.51-1.23,1.4,1.4,0,0,1,0-.29V7.01a1.369,1.369,0,0,1,1.23-1.5,1.129,1.129,0,0,1,.26,0h9.35a1.376,1.376,0,0,1,1.49,1.24,1.045,1.045,0,0,1,0,.25C23.31,8.56,23.31,10.12,23.31,11.68Zm-9.59,3.4h6.84V8.26H13.72v6.82Z" fill="#fff"/>
    <path id="Path_31_2_" d="M24.69,21.95H12.04a3.088,3.088,0,0,1-.43-.01.656.656,0,0,1-.63-.64.681.681,0,0,1,.58-.69,2.444,2.444,0,0,1,.38-.01h25.5a1.589,1.589,0,0,1,.38.02.667.667,0,0,1,.57.66.68.68,0,0,1-.6.67c-.14.01-.29.01-.43.01Z" fill="#fff"/>
    <path id="Path_32_2_" d="M24.69,24.72H37.38a2.541,2.541,0,0,1,.39.01.7.7,0,0,1,.65.68.68.68,0,0,1-.66.66c-.11.01-.23,0-.34,0H11.99c-.68,0-1-.21-1.01-.66s.33-.69,1.02-.69Z" fill="#fff"/>
    <path id="Path_33_2_" d="M32.21,9.6H26.94c-.55,0-.86-.24-.87-.66s.31-.68.85-.68H37.54c.53,0,.86.27.85.69s-.32.66-.83.66C35.78,9.6,34,9.6,32.21,9.6Z" fill="#fff"/>
    <path id="Path_34_2_" d="M32.25,13.71H27.07a2.381,2.381,0,0,1-.38-.01.67.67,0,0,1-.08-1.32,1.489,1.489,0,0,1,.42-.03H37.44a2.381,2.381,0,0,1,.38.01.674.674,0,0,1,.58.69.649.649,0,0,1-.63.64,1.93,1.93,0,0,1-.34,0Z" fill="#fff"/>
    <path id="Path_35_2_" d="M32.21,17.83H26.94c-.55,0-.86-.24-.87-.66s.31-.68.85-.68H37.54c.53,0,.86.27.85.69s-.32.66-.83.66C35.78,17.83,34,17.83,32.21,17.83Z" fill="#fff"/>
    <path id="Path_36_2_" d="M17.14,30.18H11.79a.712.712,0,0,1-.77-.48.656.656,0,0,1,.44-.83.425.425,0,0,1,.11-.02,2.045,2.045,0,0,1,.43-.01H22.32c.12,0,.23-.01.34,0a.7.7,0,0,1,.66.66.681.681,0,0,1-.68.68h-.01c-.46.01-.91,0-1.37,0Z" fill="#fff"/>
    <path id="Path_37_2_" d="M32.24,28.83h5.22a1.589,1.589,0,0,1,.38.02.666.666,0,0,1,.56.66.68.68,0,0,1-.61.66.97.97,0,0,1-.17.01H26.87c-.48,0-.78-.26-.79-.66s.31-.69.8-.69Z" fill="#fff"/>
    <path id="Path_38_2_" d="M17.15,34.3H11.8a.7.7,0,0,1-.77-.48.674.674,0,0,1,.43-.84l.11-.03a1.625,1.625,0,0,1,.38-.01h10.4c.1,0,.2-.01.3,0a.67.67,0,0,1-.01,1.34h-.01c-.37.02-.74,0-1.11,0C20.06,34.3,18.6,34.3,17.15,34.3Z" fill="#fff"/>
    <path id="Path_39_2_" d="M32.25,32.95h5.22a1.489,1.489,0,0,1,.42.03.663.663,0,0,1-.08,1.3,1.625,1.625,0,0,1-.38.01H27.02c-.1,0-.2.01-.3,0a.678.678,0,0,1-.65-.66.694.694,0,0,1,.64-.68c.11-.01.23-.01.34-.01Z" fill="#fff"/>
    <path id="Path_40_2_" d="M17.14,37.07h5.18c.11,0,.23,0,.34.01a.68.68,0,0,1,.64.68.659.659,0,0,1-.66.66h0c-3.67.01-7.33.01-11,0a.657.657,0,0,1-.66-.65h0a.679.679,0,0,1,.66-.69h.01c.57-.02,1.14-.01,1.71-.01Z" fill="#fff"/>
    <path id="Path_41_2_" d="M32.2,38.42H26.89a.7.7,0,0,1-.77-.48.674.674,0,0,1,.43-.84.425.425,0,0,1,.11-.02,2.045,2.045,0,0,1,.43-.01H37.41c.11,0,.23-.01.34,0a.694.694,0,0,1,.66.66.681.681,0,0,1-.68.68h-.01c-.38.01-.77,0-1.16,0C35.11,38.41,33.65,38.42,32.2,38.42Z" fill="#fff"/>
  </g>
</svg>
