<svg id="Group_228_1_" xmlns="http://www.w3.org/2000/svg" width="43.496" height="40" viewBox="0 0 43.496 40">
  <rect id="Rectangle_24_2_" width="13" height="4" transform="translate(0 36)" fill="#fff"/>
  <rect id="Rectangle_25_2_" width="13" height="4" transform="translate(0 27)" fill="#fff"/>
  <rect id="Rectangle_26_2_" width="24" height="4" transform="translate(0 18)" fill="#fff"/>
  <rect id="Rectangle_27_2_" width="24" height="4" transform="translate(0 9)" fill="#fff"/>
  <rect id="Rectangle_28_2_" width="24" height="4" fill="#fff"/>
  <path id="Path_25_2_" d="M21.55,39.31a5.452,5.452,0,0,1-4.03-3.71,5.974,5.974,0,0,1,1.29-5.18,9.6,9.6,0,0,1,9.06-3.37c.03-8.85,0-17.69.01-26.54a16.63,16.63,0,0,0,2.75,3.28c2.3,2.08,5.16,3.41,7.53,5.41a15.46,15.46,0,0,1,4.71,6.44,10.608,10.608,0,0,1,.41,5.72c-.51,2.44-2,3.81-3.61,5.69.55-2.27,1.17-3.8.47-6.08A8.163,8.163,0,0,0,37.38,17a20.119,20.119,0,0,0-4.88-2.72c-.02,5.84,0,11.69-.01,17.53a6.87,6.87,0,0,1-2.41,5.27,9.449,9.449,0,0,1-8.53,2.23" fill="#fff"/>
</svg>
