<svg id="Group_233" data-name="Group 233" xmlns="http://www.w3.org/2000/svg" width="48.991" height="48.992" viewBox="0 0 48.991 48.992">
  <path id="Path_326" data-name="Path 326" d="M159.672,442.948a7.261,7.261,0,1,1-7.263-7.258A7.267,7.267,0,0,1,159.672,442.948Zm-7.283,4.527a4.533,4.533,0,1,0-4.506-4.573A4.529,4.529,0,0,0,152.389,447.475Z" transform="translate(-137.894 -413.909)" fill="#fff"/>
  <g id="Group_232" data-name="Group 232">
    <path id="Path_327" data-name="Path 327" d="M0,38.793V19.247c.048-.345.088-.691.146-1.035A10.71,10.71,0,0,1,4.077,11.47a10.577,10.577,0,0,1,4.97-2.243A.414.414,0,0,0,9.3,9.075a2.274,2.274,0,0,1,.8-.738q5.988-3.451,11.974-6.9A15.7,15.7,0,0,1,24.746,0h.55c.063.019.125.041.188.058a1.811,1.811,0,0,1,1.354,1.866,1.884,1.884,0,0,1-1.055,1.56Q21.1,6.175,16.42,8.884c-.078.045-.155.094-.233.141l.022.052H16.5q10.746,0,21.492,0a10.6,10.6,0,0,1,5.1,1.214A10.721,10.721,0,0,1,48.8,17.968c.084.422.128.853.191,1.28V38.794a1.726,1.726,0,0,0-.043.216A10.214,10.214,0,0,1,47.771,43.1a10.733,10.733,0,0,1-7.65,5.694c-.438.089-.885.131-1.328.2H10.2a1.115,1.115,0,0,0-.167-.04,10.376,10.376,0,0,1-4.686-1.484,10.714,10.714,0,0,1-5.15-7.35C.108,39.681.064,39.235,0,38.793Zm24.5,6.565c4.174,0,8.348.008,12.521-.008a8.969,8.969,0,0,0,1.957-.2,8.1,8.1,0,0,0,6.382-8.062q.012-8.06-.009-16.12a8.96,8.96,0,0,0-.246-2.1,8.117,8.117,0,0,0-7.932-6.17q-12.608-.005-25.217,0a10.063,10.063,0,0,0-1.639.14A8.092,8.092,0,0,0,3.762,19.5a18.59,18.59,0,0,0-.119,2.641c-.008,5.1-.017,10.2.008,15.295A7.611,7.611,0,0,0,5.6,42.506a8.022,8.022,0,0,0,6.321,2.853Z" fill="#fff"/>
    <path id="Path_328" data-name="Path 328" d="M621.994,656.857c-1.066,0-2.132.008-3.2,0a1.81,1.81,0,0,1-.46-3.557,1.882,1.882,0,0,1,.492-.07q3.16-.007,6.319,0a1.815,1.815,0,0,1,1.79,1.422,1.78,1.78,0,0,1-.98,2.014,2.2,2.2,0,0,1-.841.186C624.075,656.87,623.034,656.857,621.994,656.857Z" transform="translate(-586.152 -620.567)" fill="#fff"/>
    <path id="Path_329" data-name="Path 329" d="M622.009,435.621c1.041,0,2.082-.007,3.122,0a1.807,1.807,0,0,1,.12,3.613c-1.232.018-2.464.006-3.7.007-.924,0-1.848.008-2.773,0a1.806,1.806,0,0,1-.533-3.519,2.465,2.465,0,0,1,.712-.094C619.977,435.615,620.993,435.621,622.009,435.621Z" transform="translate(-586.162 -413.841)" fill="#fff"/>
    <path id="Path_330" data-name="Path 330" d="M490.01,655.072a1.815,1.815,0,1,1,1.8,1.821A1.82,1.82,0,0,1,490.01,655.072Z" transform="translate(-465.514 -620.603)" fill="#fff"/>
    <path id="Path_331" data-name="Path 331" d="M491.82,435.709a1.81,1.81,0,1,1-1.8,1.816A1.809,1.809,0,0,1,491.82,435.709Z" transform="translate(-465.523 -413.927)" fill="#fff"/>
  </g>
</svg>
