<svg xmlns="http://www.w3.org/2000/svg" width="43.496" height="39.822" viewBox="0 0 43.496 39.822">
  <g id="Group_28_2_" transform="translate(-41 -213.178)">
    <g id="playlist_2_">
      <g id="Rectangle_24_2_">
        <rect id="Rectangle_29_2_" width="13" height="4" transform="translate(41 249)" fill="#fff"/>
      </g>
      <g id="Rectangle_25_2_">
        <rect id="Rectangle_30_2_" width="13" height="4" transform="translate(41 240)" fill="#fff"/>
      </g>
      <g id="Rectangle_26_2_">
        <rect id="Rectangle_31_2_" width="24" height="4" transform="translate(41 231)" fill="#fff"/>
      </g>
      <g id="Path_25_2_">
        <path id="Path_26_2_" d="M62.55,252.31a5.452,5.452,0,0,1-4.03-3.71,5.974,5.974,0,0,1,1.29-5.18,9.6,9.6,0,0,1,9.06-3.37c.03-8.85,0-17.69.01-26.54a16.63,16.63,0,0,0,2.75,3.28c2.3,2.09,5.16,3.41,7.53,5.41a15.46,15.46,0,0,1,4.71,6.44,10.608,10.608,0,0,1,.41,5.72c-.51,2.44-2,3.81-3.61,5.69.55-2.27,1.17-3.8.47-6.08A8.163,8.163,0,0,0,78.38,230a20.119,20.119,0,0,0-4.88-2.72c-.02,5.84,0,11.69-.01,17.53a6.87,6.87,0,0,1-2.41,5.27,9.449,9.449,0,0,1-8.53,2.23" fill="#fff"/>
      </g>
    </g>
    <g id="Group_27_2_">
      <path id="Path_27_2_" d="M43.06,224.06l2.8-.03-.07-7.68-2.36.02-.02-1.7a10.812,10.812,0,0,0,1.69-.46,7.036,7.036,0,0,0,1.37-.69l2.02-.02.1,10.5,2.42-.02.02,2.22-7.96.07Z" fill="#fff"/>
      <path id="Path_28_2_" d="M54.71,225.64a4.881,4.881,0,0,1-1.58-2.26,10.6,10.6,0,0,1-.58-3.62,8.353,8.353,0,0,1,1.15-4.86,4,4,0,0,1,5.58-1,4.082,4.082,0,0,1,.96.94,8.349,8.349,0,0,1,1.25,4.84,10.406,10.406,0,0,1-.52,3.63,4.9,4.9,0,0,1-1.53,2.29,4.017,4.017,0,0,1-4.73.04Zm3.73-2.41a8.912,8.912,0,0,0,.47-3.51,8.369,8.369,0,0,0-.53-3.43,1.467,1.467,0,0,0-2.77.02,8.416,8.416,0,0,0-.46,3.45,8.928,8.928,0,0,0,.53,3.51,1.432,1.432,0,0,0,1.8.95,1.506,1.506,0,0,0,.96-.99Z" fill="#fff"/>
    </g>
  </g>
</svg>
